<?xml version="1.0" encoding="UTF-8" standalone="no"?>
<!DOCTYPE svg PUBLIC "-//W3C//DTD SVG 1.1//EN" "http://www.w3.org/Graphics/SVG/1.1/DTD/svg11.dtd">
<svg width="100%" height="100%" viewBox="0 0 684 596" version="1.1" xmlns="http://www.w3.org/2000/svg" xmlns:xlink="http://www.w3.org/1999/xlink" xml:space="preserve" xmlns:serif="http://www.serif.com/" style="fill-rule:evenodd;clip-rule:evenodd;stroke-linecap:round;stroke-linejoin:round;stroke-miterlimit:2;">
    <g transform="matrix(1,0,0,1,-607.718,-92.8562)">
        <g id="Монитор" transform="matrix(1,0,0,1,-5.03978,-75.5965)">
            <g transform="matrix(1,0,0,1,-9.23816,-69.2862)">
                <path d="M622.813,279.118C622.813,279.118 625.638,243.195 659.946,239.563C694.254,235.93 1264.18,238.846 1264.18,238.846C1264.18,238.846 1297.46,235.746 1302.62,280.59C1307.79,325.434 1302.95,664.703 1302.95,664.703C1302.95,664.703 1304.54,703.72 1261.16,705.968C1217.78,708.217 1047.41,705.448 1047.41,705.448C1047.41,705.448 1163.8,744.418 1174.21,785.134C1184.63,825.85 1135.03,835.108 1133.87,833.289C1132.71,831.471 790.092,832.613 790.092,832.613C790.092,832.613 746.903,833.461 750.622,785.517C751.069,779.764 755.222,774.906 759.331,770.075C767.208,760.811 778.905,752.53 791.929,744.439C811.977,731.982 835.506,721.849 852.665,714.862C866.997,709.026 876.737,705.236 877.715,705.542C881.021,706.575 661.136,705.408 661.136,705.408C661.136,705.408 624.568,706.405 622.781,665.896C620.995,625.386 622.813,279.118 622.813,279.118Z" style="fill:url(#_Linear1);"/>
            </g>
            <g transform="matrix(1,0,0,1,-9.23816,-69.2862)">
                <path d="M665.24,280.563L1260.52,281.338L1261.04,663.907L665.731,663.649L665.24,280.563Z" style="fill:url(#_Linear2);"/>
            </g>
            <g transform="matrix(1,0,0,1,-17.1884,-53.1175)">
                <path d="M1218.21,287.68L1219,619.721L708.808,620.149L708.951,577.151C708.951,577.151 867.664,304.235 1090.76,287.68C1105.86,286.56 1218.21,287.68 1218.21,287.68Z" style="fill:url(#_Linear3);"/>
            </g>
        </g>
        <g transform="matrix(1,0,0,1,0,-131.034)">
            <path d="M743.273,289.835L793.367,289.924C793.367,289.924 801.258,289.481 807.287,298.701C813.315,307.922 822.004,337.889 822.004,337.889C822.004,337.889 823.068,341.17 825.551,342.056C828.033,342.943 1115.26,342.234 1115.26,342.234C1115.26,342.234 1120.14,342.056 1125.19,349.327C1130.25,356.597 1122.27,372.378 1122.27,372.378L1086.71,488.081C1086.71,488.081 1083.35,499.341 1073.59,500.67C1063.84,502 886.715,500.493 886.715,500.493L892.389,520.264L1065,520.974L1065,565C1061.47,560.262 1056.01,556.355 1048.44,553.349C1041.92,551.272 1034.78,551.347 1027.1,553.311C1019.55,555.271 1013.96,559.576 1009.3,565L923.638,565C923.869,559.254 919.289,555.112 910.861,552.252C907.237,552.929 898.617,548.912 890.86,550.622C880.957,552.806 872.075,559.401 867.53,565L866.868,551.003L861.795,526.144L783.248,320.323L741.31,319.308C741.31,319.308 730.149,312.206 731.501,303.751C732.854,295.295 743.208,290.125 743.273,289.835Z" style="fill:url(#_Linear4);stroke:black;stroke-width:3px;"/>
        </g>
        <g transform="matrix(0.803749,0,0,0.803749,176.054,13.7582)">
            <g transform="matrix(1,0,0,1,5.06846,-32.0532)">
                <circle cx="1067.79" cy="580.071" r="44.712" style="fill:url(#_Linear5);stroke:black;stroke-width:2.49px;"/>
            </g>
            <g transform="matrix(1,0,0,1,-169.377,-32.4685)">
                <circle cx="1067.79" cy="580.071" r="44.712" style="fill:url(#_Linear6);stroke:black;stroke-width:2.49px;"/>
            </g>
        </g>
        <g transform="matrix(1,0,0,1,0,-131.034)">
            <path d="M920.144,432.607L858.635,432.607L873.961,470L920.144,470L920.144,432.607Z" style="fill:url(#_Linear7);stroke:url(#_Linear8);stroke-width:2px;"/>
            <g transform="matrix(1,0,0,1,73.7424,-0.624004)">
                <path d="M920.144,432.607L864.959,432.607L864.959,470.139L920.144,470L920.144,432.607Z" style="fill:url(#_Linear9);stroke:url(#_Linear10);stroke-width:2px;"/>
            </g>
            <g transform="matrix(1.18435,0,0,1.18455,-90.6933,-141.071)">
                <path d="M920.144,432.607L864.959,432.607L864.959,470.139L920.144,470L920.144,432.607Z" style="fill:url(#_Linear11);stroke:url(#_Linear12);stroke-width:1.69px;"/>
            </g>
            <g transform="matrix(-1,0,0,1,1931.53,0.528459)">
                <path d="M920.144,432.607L858.635,432.607L873.961,470L920.144,470L920.144,432.607Z" style="fill:url(#_Linear13);stroke:url(#_Linear14);stroke-width:2px;"/>
            </g>
            <g transform="matrix(1.3252,0,0,1.1788,-301.39,-138.027)">
                <path d="M920.144,432.607L858.635,432.607L873.961,470L920.144,470L920.144,432.607Z" style="fill:url(#_Linear15);stroke:url(#_Linear16);stroke-width:1.59px;"/>
            </g>
            <g transform="matrix(-1.3252,0,0,1.1788,2232.92,-137.498)">
                <path d="M920.144,432.607L858.635,432.607L873.961,470L920.144,470L920.144,432.607Z" style="fill:url(#_Linear17);stroke:url(#_Linear18);stroke-width:1.59px;"/>
            </g>
        </g>
    </g>
    <defs>
        <linearGradient id="_Linear1" x1="0" y1="0" x2="1" y2="0" gradientUnits="userSpaceOnUse" gradientTransform="matrix(894.561,735.808,-735.808,894.561,611.495,232.637)"><stop offset="0" style="stop-color:rgb(30,31,40);stop-opacity:1"/><stop offset="1" style="stop-color:rgb(30,31,57);stop-opacity:1"/></linearGradient>
        <linearGradient id="_Linear2" x1="0" y1="0" x2="1" y2="0" gradientUnits="userSpaceOnUse" gradientTransform="matrix(335.145,448.54,-448.54,335.145,785.367,89.0037)"><stop offset="0" style="stop-color:rgb(48,117,255);stop-opacity:1"/><stop offset="1" style="stop-color:rgb(157,44,232);stop-opacity:1"/></linearGradient>
        <linearGradient id="_Linear3" x1="0" y1="0" x2="1" y2="0" gradientUnits="userSpaceOnUse" gradientTransform="matrix(510.188,0,0,298.124,708.808,471.087)"><stop offset="0" style="stop-color:rgb(168,0,165);stop-opacity:1"/><stop offset="1" style="stop-color:rgb(240,151,60);stop-opacity:1"/></linearGradient>
        <linearGradient id="_Linear4" x1="0" y1="0" x2="1" y2="0" gradientUnits="userSpaceOnUse" gradientTransform="matrix(395.482,0,0,261.134,731.388,420.402)"><stop offset="0" style="stop-color:rgb(245,151,50);stop-opacity:1"/><stop offset="1" style="stop-color:rgb(255,230,48);stop-opacity:1"/></linearGradient>
        <linearGradient id="_Linear5" x1="0" y1="0" x2="1" y2="0" gradientUnits="userSpaceOnUse" gradientTransform="matrix(89.4237,0,0,89.4237,1023.07,580.071)"><stop offset="0" style="stop-color:rgb(240,151,60);stop-opacity:1"/><stop offset="1" style="stop-color:rgb(255,230,48);stop-opacity:1"/></linearGradient>
        <linearGradient id="_Linear6" x1="0" y1="0" x2="1" y2="0" gradientUnits="userSpaceOnUse" gradientTransform="matrix(89.4237,0,0,89.4237,1023.07,580.071)"><stop offset="0" style="stop-color:rgb(240,151,60);stop-opacity:1"/><stop offset="1" style="stop-color:rgb(255,230,48);stop-opacity:1"/></linearGradient>
        <linearGradient id="_Linear7" x1="0" y1="0" x2="1" y2="0" gradientUnits="userSpaceOnUse" gradientTransform="matrix(220.944,-153.209,153.209,220.944,761.98,540.378)"><stop offset="0" style="stop-color:rgb(174,90,1);stop-opacity:1"/><stop offset="1" style="stop-color:rgb(255,177,32);stop-opacity:1"/></linearGradient>
        <linearGradient id="_Linear8" x1="0" y1="0" x2="1" y2="0" gradientUnits="userSpaceOnUse" gradientTransform="matrix(258.594,0,0,99.1535,836.47,420.952)"><stop offset="0" style="stop-color:rgb(30,31,40);stop-opacity:1"/><stop offset="1" style="stop-color:rgb(30,31,57);stop-opacity:1"/></linearGradient>
        <linearGradient id="_Linear9" x1="0" y1="0" x2="1" y2="0" gradientUnits="userSpaceOnUse" gradientTransform="matrix(220.944,-153.209,153.209,220.944,688.237,541.002)"><stop offset="0" style="stop-color:rgb(174,90,1);stop-opacity:1"/><stop offset="1" style="stop-color:rgb(255,177,32);stop-opacity:1"/></linearGradient>
        <linearGradient id="_Linear10" x1="0" y1="0" x2="1" y2="0" gradientUnits="userSpaceOnUse" gradientTransform="matrix(258.594,0,0,99.1535,836.47,420.952)"><stop offset="0" style="stop-color:rgb(30,31,40);stop-opacity:1"/><stop offset="1" style="stop-color:rgb(30,31,57);stop-opacity:1"/></linearGradient>
        <linearGradient id="_Linear11" x1="0" y1="0" x2="1" y2="0" gradientUnits="userSpaceOnUse" gradientTransform="matrix(186.552,-129.339,129.361,186.521,719.949,575.279)"><stop offset="0" style="stop-color:rgb(174,90,1);stop-opacity:1"/><stop offset="1" style="stop-color:rgb(255,177,32);stop-opacity:1"/></linearGradient>
        <linearGradient id="_Linear12" x1="0" y1="0" x2="1" y2="0" gradientUnits="userSpaceOnUse" gradientTransform="matrix(258.594,0,0,99.1535,836.47,420.952)"><stop offset="0" style="stop-color:rgb(30,31,40);stop-opacity:1"/><stop offset="1" style="stop-color:rgb(30,31,57);stop-opacity:1"/></linearGradient>
        <linearGradient id="_Linear13" x1="0" y1="0" x2="1" y2="0" gradientUnits="userSpaceOnUse" gradientTransform="matrix(-220.944,-153.209,-153.209,220.944,1169.55,539.849)"><stop offset="0" style="stop-color:rgb(174,90,1);stop-opacity:1"/><stop offset="1" style="stop-color:rgb(255,177,32);stop-opacity:1"/></linearGradient>
        <linearGradient id="_Linear14" x1="0" y1="0" x2="1" y2="0" gradientUnits="userSpaceOnUse" gradientTransform="matrix(258.594,0,0,99.1535,836.47,420.952)"><stop offset="0" style="stop-color:rgb(30,31,40);stop-opacity:1"/><stop offset="1" style="stop-color:rgb(30,31,57);stop-opacity:1"/></linearGradient>
        <linearGradient id="_Linear15" x1="0" y1="0" x2="1" y2="0" gradientUnits="userSpaceOnUse" gradientTransform="matrix(166.725,-129.971,115.612,187.431,802.424,575.505)"><stop offset="0" style="stop-color:rgb(174,90,1);stop-opacity:1"/><stop offset="1" style="stop-color:rgb(255,177,32);stop-opacity:1"/></linearGradient>
        <linearGradient id="_Linear16" x1="0" y1="0" x2="1" y2="0" gradientUnits="userSpaceOnUse" gradientTransform="matrix(258.594,0,0,99.1535,836.47,420.952)"><stop offset="0" style="stop-color:rgb(30,31,40);stop-opacity:1"/><stop offset="1" style="stop-color:rgb(30,31,57);stop-opacity:1"/></linearGradient>
        <linearGradient id="_Linear17" x1="0" y1="0" x2="1" y2="0" gradientUnits="userSpaceOnUse" gradientTransform="matrix(-166.725,-129.971,-115.612,187.431,1109.98,575.057)"><stop offset="0" style="stop-color:rgb(174,90,1);stop-opacity:1"/><stop offset="1" style="stop-color:rgb(255,177,32);stop-opacity:1"/></linearGradient>
        <linearGradient id="_Linear18" x1="0" y1="0" x2="1" y2="0" gradientUnits="userSpaceOnUse" gradientTransform="matrix(258.594,0,0,99.1535,836.47,420.952)"><stop offset="0" style="stop-color:rgb(30,31,40);stop-opacity:1"/><stop offset="1" style="stop-color:rgb(30,31,57);stop-opacity:1"/></linearGradient>
    </defs>
</svg>
