<?xml version="1.0" encoding="UTF-8" standalone="no"?>
<!DOCTYPE svg PUBLIC "-//W3C//DTD SVG 1.1//EN" "http://www.w3.org/Graphics/SVG/1.1/DTD/svg11.dtd">
<svg width="100%" height="100%" viewBox="0 0 36 36" version="1.1" xmlns="http://www.w3.org/2000/svg" xmlns:xlink="http://www.w3.org/1999/xlink" xml:space="preserve" xmlns:serif="http://www.serif.com/" style="fill-rule:evenodd;clip-rule:evenodd;">
    <path d="M18,29.192L7.771,34.532C7.404,34.724 6.977,34.412 7.047,34.004L9,22.699L0.732,14.695C0.433,14.407 0.597,13.901 1.008,13.841L12.438,12.192L17.552,1.901C17.736,1.531 18.264,1.531 18.448,1.901L23.562,12.192L34.992,13.841C35.403,13.901 35.566,14.407 35.268,14.695L27,22.699L28.953,34.004C29.023,34.412 28.595,34.724 28.228,34.532L18,29.192Z" style="fill:none;"/>
    <clipPath id="_clip1">
        <path d="M18,29.192L7.771,34.532C7.404,34.724 6.977,34.412 7.047,34.004L9,22.699L0.732,14.695C0.433,14.407 0.597,13.901 1.008,13.841L12.438,12.192L17.552,1.901C17.736,1.531 18.264,1.531 18.448,1.901L23.562,12.192L34.992,13.841C35.403,13.901 35.566,14.407 35.268,14.695L27,22.699L28.953,34.004C29.023,34.412 28.595,34.724 28.228,34.532L18,29.192Z"/>
    </clipPath>
    <g clip-path="url(#_clip1)">
        <rect x="-2.7" y="-0.501" width="20.63" height="35.832" style="fill:rgb(255,186,73);"/>
        <g transform="matrix(1,0,0,1,18.9835,0.320203)">
            <rect x="-2.7" y="-0.501" width="20.63" height="35.832" style="fill:rgb(255,186,73);"/>
        </g>
    </g>
    <path d="M18,29.192L7.771,34.532C7.404,34.724 6.977,34.412 7.047,34.004L9,22.699L0.732,14.695C0.433,14.407 0.597,13.901 1.008,13.841L12.438,12.192L17.552,1.901C17.736,1.531 18.264,1.531 18.448,1.901L23.562,12.192L34.992,13.841C35.403,13.901 35.566,14.407 35.268,14.695L27,22.699L28.953,34.004C29.023,34.412 28.595,34.724 28.228,34.532L18,29.192Z" style="fill:none;stroke:rgb(255,186,73);stroke-width:1px;"/>
</svg>
