<?xml version="1.0" encoding="UTF-8" standalone="no"?>
<!DOCTYPE svg PUBLIC "-//W3C//DTD SVG 1.1//EN" "http://www.w3.org/Graphics/SVG/1.1/DTD/svg11.dtd">
<svg width="100%" height="100%" viewBox="0 0 7650 1000" version="1.1" xmlns="http://www.w3.org/2000/svg" xmlns:xlink="http://www.w3.org/1999/xlink" xml:space="preserve" xmlns:serif="http://www.serif.com/" style="fill-rule:evenodd;clip-rule:evenodd;stroke-linejoin:round;stroke-miterlimit:2;">
    <g transform="matrix(5.55556,0,0,5.55556,0,0)">
        <path d="M1377.54,20.24L1377.54,-0.01L1227.96,-0.01C1211.22,-0.01 1197.95,13.24 1197.95,30.01L1197.95,150.31C1197.95,167.06 1211.22,180.33 1227.96,180.33L1377.54,180.33L1377.54,160.06L1227.96,160.06C1222.71,160.06 1218.22,155.56 1218.22,150.31L1218.22,30C1218.22,24.75 1222.71,20.25 1227.96,20.25L1377.54,20.24Z" style="fill:white;fill-rule:nonzero;"/>
        <path d="M1000.12,93.13L1000.12,180.33L1020.37,180.33L1020.37,112.29C1024.12,112.8 1027.87,113.29 1030.12,113.29L1150.18,113.29C1166.93,113.29 1180.2,99.78 1180.2,83.28L1180.2,30.5C1180.2,13.99 1166.93,0.49 1150.18,0.49L1000.12,0.49L1000.12,21L1150.18,20.74C1155.44,20.74 1159.93,25.25 1159.93,30.5L1159.93,83.28C1159.93,88.53 1155.44,92.78 1150.18,92.78L1000.12,93.13Z" style="fill:white;fill-rule:nonzero;"/>
        <path d="M793.52,39.47L934.33,39.26L934.33,82.02L793.52,82.41L793.52,180.33L832.29,180.33L832.29,122.54C832.53,122.8 833.04,122.8 833.04,122.8C833.04,121.8 832.79,121.3 832.29,121.3L883.81,121.04L933.58,180.33L973.6,180.33L973.6,167.06C961.1,152.06 947.34,136.06 934.58,121.04L936.34,121.04C956.84,121.04 973.6,104.29 973.6,84.03L973.6,37.51C973.6,17.25 956.84,0.49 936.34,0.49L793.52,0.49L793.52,39.47Z" style="fill:white;fill-rule:nonzero;"/>
        <path d="M769.01,0.24L602.69,0.24L602.69,180.33L769.01,180.33L769.01,141.3L641.95,141.3L641.95,109.78L744.25,109.78L744.25,70.77L641.95,70.77L641.95,39.26L769.01,39.26L769.01,0.24Z" style="fill:white;fill-rule:nonzero;"/>
        <path d="M404.34,82.71L404.34,180.33L443.12,180.33L443.12,122.54C443.36,122.8 443.86,122.8 443.86,122.8C443.86,121.8 443.62,121.3 443.12,121.3L547.16,121.04C567.67,121.04 584.42,104.29 584.42,84.03L584.42,37.51C584.42,17.25 567.67,0.49 547.16,0.49L404.34,0.49L404.34,39.1L545.16,39.26L545.16,82.02L404.34,82.71Z" style="fill:white;fill-rule:nonzero;"/>
        <path d="M352.07,-0.01C334.06,23.04 314.05,48.1 295.8,71.11L239.27,-0.01L193,-0.01C207,19.29 227.77,47.85 243.53,68.86L276.29,112.96L276.29,180.33L315.31,180.33L315.31,113.21L398.85,-0.01L352.07,-0.01Z" style="fill:white;fill-rule:nonzero;"/>
        <path d="M145.22,-0.01L145.22,70.77L38.93,70.77L38.93,-0.01L0.15,-0.01L0.15,180.33L38.93,180.33L38.93,109.78L145.22,109.78L145.22,180.33L184,180.33L184,-0.01L145.22,-0.01Z" style="fill:white;fill-rule:nonzero;"/>
    </g>
</svg>
