<?xml version="1.0"?>
<svg xmlns="http://www.w3.org/2000/svg" xmlns:xlink="http://www.w3.org/1999/xlink" xmlns:svgjs="http://svgjs.com/svgjs" version="1.1" width="512" height="512" x="0" y="0" viewBox="0 0 511.999 511.999" style="enable-background:new 0 0 512 512" xml:space="preserve" class=""><g>
<g xmlns="http://www.w3.org/2000/svg">
	<path style="" d="M201.98,422.689c1.85-0.606,2.795-0.7,2.788-1.799c-0.069-11.292,0.45-12.246-1.167-12.296   c-7.482-0.23-15.038,0.525-22.464-0.427c-0.07-0.009-0.139-0.024-0.207-0.046c-13.558-4.241-29.666,0.278-38.286,11.758   c-10.194,12.844-9.253,33.131,2.339,44.795c12.068,12.855,33.969,14.107,47.662,3.147c12.982-9.749,16.751-29.405,8.648-43.375   C200.907,423.78,201.25,422.929,201.98,422.689z M176.726,458.372c-9.408,3.54-20.887-2.174-23.639-11.851   c-3.209-9.159,2.132-20.142,11.416-23.08c8.828-3.219,19.738,1.387,23.111,10.267C191.827,443.085,186.589,455.266,176.726,458.372   z" fill="#ef3651" data-original="#579add"/>
	<path style="" d="M53.165,381.414c-4.598,0.049-9.201-0.01-13.799,0.024c-0.673,0.005-1.218,0.555-1.219,1.229   c-0.038,29.808-0.01,59.607-0.019,89.416c0,0.68,0.553,1.229,1.233,1.223c4.601-0.04,9.201-0.053,13.801,0.005   c0.68,0.008,1.236-0.538,1.238-1.218c0.058-29.823,0.029-59.646-0.001-89.46C54.4,381.952,53.845,381.407,53.165,381.414z" fill="#ef3651" data-original="#579add"/>
	<path style="" d="M146.97,503.28c19.706,17.788,57.092,7.757,58.655-24.609c0.083-1.729-0.739-1.144-15.467-1.267   c-0.621-0.005-1.148,0.455-1.222,1.071c-0.312,2.571-0.723,5.162-1.994,7.457c-7.596,16.12-33.465,12.258-34.787-7.395   c-0.043-0.633-0.591-1.115-1.225-1.116c-4.685-0.011-9.375,0.017-14.061-0.001c-0.676-0.003-1.239,0.541-1.232,1.217   C135.744,487.958,139.88,497.191,146.97,503.28z" fill="#ef3651" data-original="#579add"/>
	<path style="" d="M89.144,407.067c-28.17,4.771-36.342,37.088-21.456,55.217c16.614,21.469,54.78,15.607,61.624-12.71   c2.018-8.683,1.035-18.206-3.509-25.968C118.714,410.989,103.21,404.479,89.144,407.067z M105.56,456.374   c-8.569,5.9-21.808,2.722-26.361-6.749c-5.838-9.977,0.342-24.281,11.706-26.641c7.348-1.873,15.722,1.201,19.883,7.607   C116.396,438.727,114.015,451.137,105.56,456.374z" fill="#ef3651" data-original="#579add"/>
	<path style="" d="M393.49,429.996c0.475,0.469,1.235,0.49,1.72,0.032c3.305-3.125,6.526-6.34,9.74-9.562   c0.456-0.457,0.486-1.196,0.056-1.678c-2.787-3.119-5.99-5.901-9.677-7.891c-14.759-8.207-35.335-4.565-45.499,9.201   c-10.971,14.003-8.58,36.474,5.61,47.413c14.261,11.835,37.78,9.893,49.568-4.488c0.396-0.484,0.344-1.195-0.1-1.636   c-9.653-9.579-10.311-10.918-11.528-9.564c-5.38,5.986-14.03,9.419-21.887,6.549c-9.304-3.022-14.314-14.221-11.126-23.328   C363.409,424.334,378.884,415.567,393.49,429.996z" fill="#ef3651" data-original="#579add"/>
	<path style="" d="M336.579,447.387c0.651-0.004,1.196-0.516,1.224-1.166c1.767-40.533-37.177-48.27-56.159-31.185   c-15.525,13.558-15.173,41.731,1.925,53.861c15.108,10.494,37.349,7.67,50.242-5.181c0.485-0.483,0.457-1.278-0.041-1.747   c-9.854-9.289-9.906-10.434-11.171-9.227c-13.185,12.577-29.09,9.344-34.397-3.581   C287.106,446.489,289.399,447.669,336.579,447.387z M287.784,432.451c5.205-13.136,19.423-13.637,26.876-8.141   c2.743,2.053,4.526,5.014,5.677,8.19c0.288,0.795-0.3,1.642-1.146,1.651c-10.092,0.111-20.185,0.126-30.277-0.014   C288.054,434.125,287.468,433.25,287.784,432.451z" fill="#ef3651" data-original="#579add"/>
	<path style="" d="M458.521,473.292c14.873-0.051,15.31,0.406,15.316-1.211c0.039-11.919,0.056-23.847-0.004-35.766   c-0.087-31.719-29.994-35.298-44.046-23.818c-0.808,0.66-2.011,0.12-2.006-0.924c0.049-9.638,0.025-19.277,0.007-28.907   c-0.001-0.673-0.546-1.222-1.219-1.226c-4.697-0.026-9.4,0.039-14.097-0.047c-0.685-0.012-1.245,0.535-1.244,1.22   c0.056,29.822-0.03,59.643,0.046,89.465c0.002,0.678,0.552,1.223,1.23,1.219c4.691-0.029,9.387-0.023,14.085-0.015   c0.677,0.001,1.226-0.547,1.225-1.225c-0.027-11.566-0.007-23.142-0.007-34.719c-0.171-18.869,30.094-20.754,29.498,0.01   c0,11.566,0.01,23.141-0.008,34.717C457.295,472.746,457.844,473.294,458.521,473.292z" fill="#ef3651" data-original="#579add"/>
	<path style="" d="M216.283,380.032c-8.176,2.35-9.832,14.811-2.619,19.251c6.511,4.71,17.14-0.155,17.005-8.445   C231.467,383.282,223.229,377.539,216.283,380.032z" fill="#ef3651" data-original="#579add"/>
	<path style="" d="M212.989,408.611c-1.824,0.011-1.113-2.651-1.257,63.464c-0.002,0.679,0.55,1.229,1.229,1.225   c4.614-0.025,9.234-0.039,13.849-0.004c0.679,0.005,1.232-0.542,1.232-1.221c0.058-66.409,0.44-63.454-1.211-63.463   C222.22,408.589,217.601,408.582,212.989,408.611z" fill="#ef3651" data-original="#579add"/>
	<path style="" d="M244.534,473.284c4.616-0.007,9.231-0.006,13.846,0.016c0.678,0.003,1.229-0.544,1.231-1.221   c0.11-50.42-0.541-48.969,1.246-48.977c6.073-0.027,7.581,0.356,7.571-1.252c-0.074-12.314,0.439-13.252-1.225-13.252   c-6.213,0.002-7.531,0.376-7.545-1.185c-0.171-18.178,0.521-18.693-1.218-18.711c-4.644-0.048-9.279-0.068-13.916,0.011   c-0.669,0.011-1.206,0.56-1.205,1.23c0.004,5.803-0.024,11.605,0.019,17.416c0.005,0.678-0.539,1.231-1.217,1.232   c-6.127,0.013-7.352-0.281-7.344,1.258c0.058,12.348-0.364,13.282,1.294,13.262c2.022-0.025,4.044-0.022,6.067-0.01   c0.676,0.004,1.219,0.555,1.215,1.231c-0.089,15.909,0.001,31.818-0.041,47.727C243.309,472.736,243.857,473.285,244.534,473.284z" fill="#ef3651" data-original="#579add"/>
	<path style="" d="M348.388,139.503h-79.674c-1.712,0-3.1,1.388-3.1,3.1v65.041c0,1.712,1.388,3.1,3.1,3.1h76.574   c1.712,0,3.1,1.388,3.1,3.1v76.574c0,1.712,1.388,3.1,3.1,3.1h65.041c1.712,0,3.1-1.388,3.1-3.1v-79.674v-68.14   c0-1.712-1.388-3.1-3.1-3.1H348.388z" fill="#ef3651" data-original="#579add"/>
	<path style="" d="M263.329,273.785c0-1.581-1.27-2.846-2.85-2.89c-53.912-1.509-97.153-45.686-97.153-99.963   s43.241-98.454,97.153-99.963c1.58-0.044,2.85-1.309,2.85-2.89V2.896c0-1.608-1.314-2.923-2.922-2.896   C167.339,1.559,92.372,77.491,92.372,170.933s74.966,169.373,168.036,170.932c1.608,0.027,2.922-1.288,2.922-2.896V273.785z" fill="#ef3651" data-original="#579add"/>
</g>
<g xmlns="http://www.w3.org/2000/svg">
	<path style="" d="M368.68,290.417v-76.574c0-1.712-1.388-3.1-3.1-3.1h-20.292c1.712,0,3.1,1.388,3.1,3.1v76.574   c0,1.712,1.388,3.1,3.1,3.1h20.292C370.068,293.516,368.68,292.128,368.68,290.417z" fill="#2a2c36" data-original="#4987ce" class=""/>
	<path style="" d="M285.907,207.643v-65.041c0-1.712,1.388-3.1,3.1-3.1h-20.292c-1.712,0-3.1,1.388-3.1,3.1v65.041   c0,1.712,1.388,3.1,3.1,3.1h20.292C287.294,210.743,285.907,209.355,285.907,207.643z" fill="#2a2c36" data-original="#4987ce" class=""/>
	<path style="" d="M112.664,170.933c0-87.37,65.544-159.425,150.141-169.695c-0.529-0.758-1.406-1.254-2.397-1.237   C167.339,1.559,92.372,77.491,92.372,170.933s74.966,169.373,168.036,170.932c0.992,0.017,1.869-0.479,2.398-1.237   C178.207,330.357,112.664,258.302,112.664,170.933z" fill="#2a2c36" data-original="#4987ce" class=""/>
</g>
<g xmlns="http://www.w3.org/2000/svg">
</g>
<g xmlns="http://www.w3.org/2000/svg">
</g>
<g xmlns="http://www.w3.org/2000/svg">
</g>
<g xmlns="http://www.w3.org/2000/svg">
</g>
<g xmlns="http://www.w3.org/2000/svg">
</g>
<g xmlns="http://www.w3.org/2000/svg">
</g>
<g xmlns="http://www.w3.org/2000/svg">
</g>
<g xmlns="http://www.w3.org/2000/svg">
</g>
<g xmlns="http://www.w3.org/2000/svg">
</g>
<g xmlns="http://www.w3.org/2000/svg">
</g>
<g xmlns="http://www.w3.org/2000/svg">
</g>
<g xmlns="http://www.w3.org/2000/svg">
</g>
<g xmlns="http://www.w3.org/2000/svg">
</g>
<g xmlns="http://www.w3.org/2000/svg">
</g>
<g xmlns="http://www.w3.org/2000/svg">
</g>
</g></svg>
